<?xml version="1.0" encoding="UTF-8" standalone="no"?>
<!-- Created with Inkscape (http://www.inkscape.org/) -->

<svg
   xmlns:dc="http://purl.org/dc/elements/1.1/"
   xmlns:cc="http://creativecommons.org/ns#"
   xmlns:rdf="http://www.w3.org/1999/02/22-rdf-syntax-ns#"
   xmlns:svg="http://www.w3.org/2000/svg"
   xmlns="http://www.w3.org/2000/svg"
   xmlns:sodipodi="http://sodipodi.sourceforge.net/DTD/sodipodi-0.dtd"
   xmlns:inkscape="http://www.inkscape.org/namespaces/inkscape"
   width="48pt"
   height="48pt"
   viewBox="0 0 16.933334 16.933333"
   version="1.1"
   id="svg979"
   inkscape:version="0.92.4 (5da689c313, 2019-01-14)"
   sodipodi:docname="13 - PopCorn.svg"
   inkscape:export-filename="E:\TR Design Studio Creative\Project Design\TR Creative Design\Icon Design\Project Hiring\Icon Icons\004 - Cinema\Send\04 - Filled Line\13 - PopCorn.png"
   inkscape:export-xdpi="768"
   inkscape:export-ydpi="768">
  <defs
     id="defs973" />
  <sodipodi:namedview
     id="base"
     pagecolor="#ffffff"
     bordercolor="#666666"
     borderopacity="1.0"
     inkscape:pageopacity="0.0"
     inkscape:pageshadow="2"
     inkscape:zoom="8.078125"
     inkscape:cx="32"
     inkscape:cy="32"
     inkscape:document-units="pt"
     inkscape:current-layer="layer1"
     showgrid="false"
     units="pt"
     inkscape:window-width="1366"
     inkscape:window-height="716"
     inkscape:window-x="-8"
     inkscape:window-y="-8"
     inkscape:window-maximized="1"
     inkscape:snap-bbox="true"
     inkscape:bbox-nodes="true"
     inkscape:snap-nodes="false"
     showguides="false">
    <inkscape:grid
       type="xygrid"
       id="grid1526" />
    <sodipodi:guide
       position="0.97013909,15.963209"
       orientation="56.666615,0"
       id="guide1528"
       inkscape:locked="false" />
    <sodipodi:guide
       position="0.97013909,0.97016731"
       orientation="0,56.666667"
       id="guide1530"
       inkscape:locked="false" />
    <sodipodi:guide
       position="15.963195,0.97016731"
       orientation="-56.666615,0"
       id="guide1532"
       inkscape:locked="false" />
    <sodipodi:guide
       position="15.963195,15.963209"
       orientation="0,-56.666667"
       id="guide1534"
       inkscape:locked="false" />
  </sodipodi:namedview>
  <metadata
     id="metadata976">
    <rdf:RDF>
      <cc:Work
         rdf:about="">
        <dc:format>image/svg+xml</dc:format>
        <dc:type
           rdf:resource="http://purl.org/dc/dcmitype/StillImage" />
        <dc:title></dc:title>
      </cc:Work>
    </rdf:RDF>
  </metadata>
  <g
     inkscape:label="Layer 1"
     inkscape:groupmode="layer"
     id="layer1"
     transform="translate(0,-280.06668)">
    <g
       transform="matrix(1.2314374,0,0,1.2314374,0.64703917,-42.279014)"
       id="g1500"
       style="stroke-width:0.81205916">
      <g
         id="g1211"
         style="stroke-width:0.81205916">
        <path
           id="path1111-3"
           d="m 2.4161828,267.39203 a 0.26460996,0.26460996 0 0 0 0.135003,0.0396 l 7.5898822,0.11957 a 0.26460996,0.26460996 0 0 0 0.231949,-0.13221 c 0.452637,-0.77999 0.459875,-1.74089 0.01779,-2.52691 -0.4201216,-0.74699 -1.1972094,-1.20104 -2.0530512,-1.26432 -0.4867128,-0.66282 -1.2443913,-1.08405 -2.0783958,-1.07591 -0.7783918,0.008 -1.4853547,0.38565 -1.9719309,0.97019 -0.8477035,0.0829 -1.6012995,0.54825 -2.0007354,1.28959 -0.4199933,0.77945 -0.4040686,1.72273 0.040526,2.48841 a 0.26460996,0.26460996 0 0 0 0.088956,0.092 z"
           style="color:#000000;font-style:normal;font-variant:normal;font-weight:normal;font-stretch:normal;font-size:medium;line-height:normal;font-family:sans-serif;font-variant-ligatures:normal;font-variant-position:normal;font-variant-caps:normal;font-variant-numeric:normal;font-variant-alternates:normal;font-feature-settings:normal;text-indent:0;text-align:start;text-decoration:none;text-decoration-line:none;text-decoration-style:solid;text-decoration-color:#000000;letter-spacing:normal;word-spacing:normal;text-transform:none;writing-mode:lr-tb;direction:ltr;text-orientation:mixed;dominant-baseline:auto;baseline-shift:baseline;text-anchor:start;white-space:normal;shape-padding:0;clip-rule:nonzero;display:inline;overflow:visible;visibility:visible;isolation:auto;mix-blend-mode:normal;color-interpolation:sRGB;color-interpolation-filters:linearRGB;solid-color:#000000;solid-opacity:1;vector-effect:none;fill:#ffd180;fill-opacity:1;fill-rule:nonzero;stroke:none;stroke-width:0.42971489;stroke-linecap:round;stroke-linejoin:round;stroke-miterlimit:4;stroke-dasharray:none;stroke-dashoffset:0;stroke-opacity:1;color-rendering:auto;image-rendering:auto;shape-rendering:auto;text-rendering:auto;enable-background:accumulate"
           inkscape:connector-curvature="0" />
        <path
           id="path1186-0"
           d="m 9.9804367,267.83681 -1.5878907,0.006 a 0.26460996,0.26460996 0 0 0 -0.2617187,0.23242 l -0.7929688,6.34766 a 0.26460996,0.26460996 0 0 0 0.2617188,0.29687 l 1.3222656,0.002 a 0.26460996,0.26460996 0 0 0 0.2617188,-0.22071 l 1.0585943,-6.35547 a 0.26460996,0.26460996 0 0 0 -0.2617193,-0.30859 z"
           style="color:#000000;font-style:normal;font-variant:normal;font-weight:normal;font-stretch:normal;font-size:medium;line-height:normal;font-family:sans-serif;font-variant-ligatures:normal;font-variant-position:normal;font-variant-caps:normal;font-variant-numeric:normal;font-variant-alternates:normal;font-feature-settings:normal;text-indent:0;text-align:start;text-decoration:none;text-decoration-line:none;text-decoration-style:solid;text-decoration-color:#000000;letter-spacing:normal;word-spacing:normal;text-transform:none;writing-mode:lr-tb;direction:ltr;text-orientation:mixed;dominant-baseline:auto;baseline-shift:baseline;text-anchor:start;white-space:normal;shape-padding:0;clip-rule:nonzero;display:inline;overflow:visible;visibility:visible;isolation:auto;mix-blend-mode:normal;color-interpolation:sRGB;color-interpolation-filters:linearRGB;solid-color:#000000;solid-opacity:1;vector-effect:none;fill:#e6e6e6;fill-opacity:1;fill-rule:nonzero;stroke:none;stroke-width:0.42971489;stroke-linecap:round;stroke-linejoin:round;stroke-miterlimit:4;stroke-dasharray:none;stroke-dashoffset:0;stroke-opacity:1;color-rendering:auto;image-rendering:auto;shape-rendering:auto;text-rendering:auto;enable-background:accumulate"
           inkscape:connector-curvature="0" />
        <path
           d="m 9.9802371,267.83673 -1.5875,0.006 a 0.26460995,0.26460995 0 0 0 -0.2619994,0.23255 l -0.7131349,5.70818 c 0.099825,0.32934 0.2235301,0.64354 0.4066937,0.91829 0.00439,0.007 0.010409,0.0117 0.014986,0.0181 l 1.0826213,0.002 a 0.26460995,0.26460995 0 0 0 0.2614827,-0.22065 l 1.0588505,-6.35517 A 0.26460995,0.26460995 0 0 0 9.9802371,267.837 Z"
           style="color:#000000;font-style:normal;font-variant:normal;font-weight:normal;font-stretch:normal;font-size:medium;line-height:normal;font-family:sans-serif;font-variant-ligatures:normal;font-variant-position:normal;font-variant-caps:normal;font-variant-numeric:normal;font-variant-alternates:normal;font-feature-settings:normal;text-indent:0;text-align:start;text-decoration:none;text-decoration-line:none;text-decoration-style:solid;text-decoration-color:#000000;letter-spacing:normal;word-spacing:normal;text-transform:none;writing-mode:lr-tb;direction:ltr;text-orientation:mixed;dominant-baseline:auto;baseline-shift:baseline;text-anchor:start;white-space:normal;shape-padding:0;clip-rule:nonzero;display:inline;overflow:visible;visibility:visible;isolation:auto;mix-blend-mode:normal;color-interpolation:sRGB;color-interpolation-filters:linearRGB;solid-color:#000000;solid-opacity:1;vector-effect:none;fill:#cccccc;fill-opacity:1;fill-rule:nonzero;stroke:none;stroke-width:0.42971489;stroke-linecap:round;stroke-linejoin:round;stroke-miterlimit:4;stroke-dasharray:none;stroke-dashoffset:0;stroke-opacity:1;color-rendering:auto;image-rendering:auto;shape-rendering:auto;text-rendering:auto;enable-background:accumulate"
           id="path1293"
           inkscape:connector-curvature="0" />
        <path
           id="path1171-8"
           d="m 6.2773117,267.84267 a 0.26460996,0.26460996 0 0 0 -0.265625,0.26367 l -0.011719,6.35156 a 0.26460996,0.26460996 0 0 0 0.265625,0.26368 l 1.3359375,-0.002 a 0.26460996,0.26460996 0 0 0 0.2617187,-0.23238 l 0.7929688,-6.3457 a 0.26460996,0.26460996 0 0 0 -0.2617188,-0.29688 z"
           style="color:#000000;font-style:normal;font-variant:normal;font-weight:normal;font-stretch:normal;font-size:medium;line-height:normal;font-family:sans-serif;font-variant-ligatures:normal;font-variant-position:normal;font-variant-caps:normal;font-variant-numeric:normal;font-variant-alternates:normal;font-feature-settings:normal;text-indent:0;text-align:start;text-decoration:none;text-decoration-line:none;text-decoration-style:solid;text-decoration-color:#000000;letter-spacing:normal;word-spacing:normal;text-transform:none;writing-mode:lr-tb;direction:ltr;text-orientation:mixed;dominant-baseline:auto;baseline-shift:baseline;text-anchor:start;white-space:normal;shape-padding:0;clip-rule:nonzero;display:inline;overflow:visible;visibility:visible;isolation:auto;mix-blend-mode:normal;color-interpolation:sRGB;color-interpolation-filters:linearRGB;solid-color:#000000;solid-opacity:1;vector-effect:none;fill:#ef5350;fill-opacity:1;fill-rule:nonzero;stroke:none;stroke-width:0.42971489;stroke-linecap:round;stroke-linejoin:round;stroke-miterlimit:4;stroke-dasharray:none;stroke-dashoffset:0;stroke-opacity:1;color-rendering:auto;image-rendering:auto;shape-rendering:auto;text-rendering:auto;enable-background:accumulate"
           inkscape:connector-curvature="0" />
        <path
           id="path1156-5"
           d="m 6.2753585,267.83681 -2.1152344,0.0117 a 0.26460996,0.26460996 0 0 0 -0.2617187,0.29883 l 0.8378906,6.34375 a 0.26460996,0.26460996 0 0 0 0.2617188,0.22851 l 1.2792969,0.002 a 0.26460996,0.26460996 0 0 0 0.2636718,-0.26368 v -6.35547 a 0.26460996,0.26460996 0 0 0 -0.265625,-0.26562 z"
           style="color:#000000;font-style:normal;font-variant:normal;font-weight:normal;font-stretch:normal;font-size:medium;line-height:normal;font-family:sans-serif;font-variant-ligatures:normal;font-variant-position:normal;font-variant-caps:normal;font-variant-numeric:normal;font-variant-alternates:normal;font-feature-settings:normal;text-indent:0;text-align:start;text-decoration:none;text-decoration-line:none;text-decoration-style:solid;text-decoration-color:#000000;letter-spacing:normal;word-spacing:normal;text-transform:none;writing-mode:lr-tb;direction:ltr;text-orientation:mixed;dominant-baseline:auto;baseline-shift:baseline;text-anchor:start;white-space:normal;shape-padding:0;clip-rule:nonzero;display:inline;overflow:visible;visibility:visible;isolation:auto;mix-blend-mode:normal;color-interpolation:sRGB;color-interpolation-filters:linearRGB;solid-color:#000000;solid-opacity:1;vector-effect:none;fill:#e6e6e6;fill-opacity:1;fill-rule:nonzero;stroke:none;stroke-width:0.42971489;stroke-linecap:round;stroke-linejoin:round;stroke-miterlimit:4;stroke-dasharray:none;stroke-dashoffset:0;stroke-opacity:1;color-rendering:auto;image-rendering:auto;shape-rendering:auto;text-rendering:auto;enable-background:accumulate"
           inkscape:connector-curvature="0" />
        <path
           id="path1141-4"
           d="m 2.5741867,267.83681 a 0.26460996,0.26460996 0 0 0 -0.2617188,0.30859 l 1.0585938,6.35547 a 0.26460996,0.26460996 0 0 0 0.2597656,0.22071 h 1.3671875 a 0.26460996,0.26460996 0 0 0 0.2636719,-0.29883 l -0.8398438,-6.34961 a 0.26460996,0.26460996 0 0 0 -0.2597656,-0.23047 z"
           style="color:#000000;font-style:normal;font-variant:normal;font-weight:normal;font-stretch:normal;font-size:medium;line-height:normal;font-family:sans-serif;font-variant-ligatures:normal;font-variant-position:normal;font-variant-caps:normal;font-variant-numeric:normal;font-variant-alternates:normal;font-feature-settings:normal;text-indent:0;text-align:start;text-decoration:none;text-decoration-line:none;text-decoration-style:solid;text-decoration-color:#000000;letter-spacing:normal;word-spacing:normal;text-transform:none;writing-mode:lr-tb;direction:ltr;text-orientation:mixed;dominant-baseline:auto;baseline-shift:baseline;text-anchor:start;white-space:normal;shape-padding:0;clip-rule:nonzero;display:inline;overflow:visible;visibility:visible;isolation:auto;mix-blend-mode:normal;color-interpolation:sRGB;color-interpolation-filters:linearRGB;solid-color:#000000;solid-opacity:1;vector-effect:none;fill:#ef5350;fill-opacity:1;fill-rule:nonzero;stroke:none;stroke-width:0.42971489;stroke-linecap:round;stroke-linejoin:round;stroke-miterlimit:4;stroke-dasharray:none;stroke-dashoffset:0;stroke-opacity:1;color-rendering:auto;image-rendering:auto;shape-rendering:auto;text-rendering:auto;enable-background:accumulate"
           inkscape:connector-curvature="0" />
        <path
           d="m 6.2595338,262.55176 c -0.7783917,0.008 -1.4853965,0.38595 -1.9719726,0.97049 -0.743153,0.0727 -1.4138077,0.43955 -1.8370971,1.02836 0.3740732,-0.27649 0.8243075,-0.4519 1.3079304,-0.4992 0.4865761,-0.58454 1.1935809,-0.96248 1.9719726,-0.97048 0.8340048,-0.008 1.5917136,0.41308 2.0784263,1.0759 0.8558404,0.0633 1.6329811,0.51754 2.0531028,1.26453 0.3694138,0.65681 0.4201128,1.43459 0.1643308,2.12803 l 0.114722,0.002 a 0.26460995,0.26460995 0 0 0 0.232027,-0.13229 c 0.452637,-0.77999 0.460172,-1.74095 0.01809,-2.52697 -0.4201218,-0.74699 -1.1972625,-1.20124 -2.0531039,-1.26452 -0.4867127,-0.66282 -1.2444204,-1.08405 -2.0784253,-1.07591 z"
           style="color:#000000;font-style:normal;font-variant:normal;font-weight:normal;font-stretch:normal;font-size:medium;line-height:normal;font-family:sans-serif;font-variant-ligatures:normal;font-variant-position:normal;font-variant-caps:normal;font-variant-numeric:normal;font-variant-alternates:normal;font-feature-settings:normal;text-indent:0;text-align:start;text-decoration:none;text-decoration-line:none;text-decoration-style:solid;text-decoration-color:#000000;letter-spacing:normal;word-spacing:normal;text-transform:none;writing-mode:lr-tb;direction:ltr;text-orientation:mixed;dominant-baseline:auto;baseline-shift:baseline;text-anchor:start;white-space:normal;shape-padding:0;clip-rule:nonzero;display:inline;overflow:visible;visibility:visible;isolation:auto;mix-blend-mode:normal;color-interpolation:sRGB;color-interpolation-filters:linearRGB;solid-color:#000000;solid-opacity:1;vector-effect:none;fill:#ffb464;fill-opacity:1;fill-rule:nonzero;stroke:none;stroke-width:0.42971489;stroke-linecap:round;stroke-linejoin:round;stroke-miterlimit:4;stroke-dasharray:none;stroke-dashoffset:0;stroke-opacity:1;color-rendering:auto;image-rendering:auto;shape-rendering:auto;text-rendering:auto;enable-background:accumulate"
           id="path1244-6"
           inkscape:connector-curvature="0" />
        <path
           d="m 6.277104,267.84242 a 0.26460995,0.26460995 0 0 0 -0.2656168,0.26406 l -0.00414,2.36833 c 0.3780446,0.33676 0.6825628,0.74237 0.8655801,1.23042 0.3530449,0.94145 0.3904766,2.09947 0.914673,2.93677 a 0.26460995,0.26460995 0 0 0 0.075448,-0.15503 l 0.7932333,-6.34535 a 0.26460995,0.26460995 0 0 0 -0.2619997,-0.29714 z"
           style="color:#000000;font-style:normal;font-variant:normal;font-weight:normal;font-stretch:normal;font-size:medium;line-height:normal;font-family:sans-serif;font-variant-ligatures:normal;font-variant-position:normal;font-variant-caps:normal;font-variant-numeric:normal;font-variant-alternates:normal;font-feature-settings:normal;text-indent:0;text-align:start;text-decoration:none;text-decoration-line:none;text-decoration-style:solid;text-decoration-color:#000000;letter-spacing:normal;word-spacing:normal;text-transform:none;writing-mode:lr-tb;direction:ltr;text-orientation:mixed;dominant-baseline:auto;baseline-shift:baseline;text-anchor:start;white-space:normal;shape-padding:0;clip-rule:nonzero;display:inline;overflow:visible;visibility:visible;isolation:auto;mix-blend-mode:normal;color-interpolation:sRGB;color-interpolation-filters:linearRGB;solid-color:#000000;solid-opacity:1;vector-effect:none;fill:#cc4542;fill-opacity:1;fill-rule:nonzero;stroke:none;stroke-width:0.42971489;stroke-linecap:round;stroke-linejoin:round;stroke-miterlimit:4;stroke-dasharray:none;stroke-dashoffset:0;stroke-opacity:1;color-rendering:auto;image-rendering:auto;shape-rendering:auto;text-rendering:auto;enable-background:accumulate"
           id="path1288-4"
           inkscape:connector-curvature="0" />
        <path
           d="m 6.2755538,267.83673 -2.1156332,0.0119 a 0.26460995,0.26460995 0 0 0 -0.2614827,0.29869 l 0.1725993,1.30638 c 0.9886445,0.29148 1.9160281,0.81068 2.4701333,1.61799 v -2.96933 a 0.26460995,0.26460995 0 0 0 -0.2656167,-0.26562 z"
           style="color:#000000;font-style:normal;font-variant:normal;font-weight:normal;font-stretch:normal;font-size:medium;line-height:normal;font-family:sans-serif;font-variant-ligatures:normal;font-variant-position:normal;font-variant-caps:normal;font-variant-numeric:normal;font-variant-alternates:normal;font-feature-settings:normal;text-indent:0;text-align:start;text-decoration:none;text-decoration-line:none;text-decoration-style:solid;text-decoration-color:#000000;letter-spacing:normal;word-spacing:normal;text-transform:none;writing-mode:lr-tb;direction:ltr;text-orientation:mixed;dominant-baseline:auto;baseline-shift:baseline;text-anchor:start;white-space:normal;shape-padding:0;clip-rule:nonzero;display:inline;overflow:visible;visibility:visible;isolation:auto;mix-blend-mode:normal;color-interpolation:sRGB;color-interpolation-filters:linearRGB;solid-color:#000000;solid-opacity:1;vector-effect:none;fill:#cccccc;fill-opacity:1;fill-rule:nonzero;stroke:none;stroke-width:0.42971489;stroke-linecap:round;stroke-linejoin:round;stroke-miterlimit:4;stroke-dasharray:none;stroke-dashoffset:0;stroke-opacity:1;color-rendering:auto;image-rendering:auto;shape-rendering:auto;text-rendering:auto;enable-background:accumulate"
           id="path1283-3"
           inkscape:connector-curvature="0" />
        <path
           d="m 2.573971,267.83673 a 0.26460995,0.26460995 0 0 0 -0.2614828,0.30851 l 0.171049,1.02836 c 0.6996042,0.046 1.4540524,0.19476 2.1461222,0.47129 l -0.2077391,-1.572 a 0.26460995,0.26460995 0 0 0 -0.2599325,-0.23047 z"
           style="color:#000000;font-style:normal;font-variant:normal;font-weight:normal;font-stretch:normal;font-size:medium;line-height:normal;font-family:sans-serif;font-variant-ligatures:normal;font-variant-position:normal;font-variant-caps:normal;font-variant-numeric:normal;font-variant-alternates:normal;font-feature-settings:normal;text-indent:0;text-align:start;text-decoration:none;text-decoration-line:none;text-decoration-style:solid;text-decoration-color:#000000;letter-spacing:normal;word-spacing:normal;text-transform:none;writing-mode:lr-tb;direction:ltr;text-orientation:mixed;dominant-baseline:auto;baseline-shift:baseline;text-anchor:start;white-space:normal;shape-padding:0;clip-rule:nonzero;display:inline;overflow:visible;visibility:visible;isolation:auto;mix-blend-mode:normal;color-interpolation:sRGB;color-interpolation-filters:linearRGB;solid-color:#000000;solid-opacity:1;vector-effect:none;fill:#cc4542;fill-opacity:1;fill-rule:nonzero;stroke:none;stroke-width:0.42971489;stroke-linecap:round;stroke-linejoin:round;stroke-miterlimit:4;stroke-dasharray:none;stroke-dashoffset:0;stroke-opacity:1;color-rendering:auto;image-rendering:auto;shape-rendering:auto;text-rendering:auto;enable-background:accumulate"
           id="path1278-5"
           inkscape:connector-curvature="0" />
        <path
           id="path1127"
           d="m 2.908171,266.76845 c -0.437748,0 -0.7988281,0.35912 -0.7988281,0.79687 0,0.43776 0.3610801,0.79883 0.7988281,0.79883 h 6.7851563 c 0.4377477,0 0.7988287,-0.36107 0.7988287,-0.79883 0,-0.43775 -0.361081,-0.79687 -0.7988287,-0.79687 z"
           style="color:#000000;font-style:normal;font-variant:normal;font-weight:normal;font-stretch:normal;font-size:medium;line-height:normal;font-family:sans-serif;font-variant-ligatures:normal;font-variant-position:normal;font-variant-caps:normal;font-variant-numeric:normal;font-variant-alternates:normal;font-feature-settings:normal;text-indent:0;text-align:start;text-decoration:none;text-decoration-line:none;text-decoration-style:solid;text-decoration-color:#000000;letter-spacing:normal;word-spacing:normal;text-transform:none;writing-mode:lr-tb;direction:ltr;text-orientation:mixed;dominant-baseline:auto;baseline-shift:baseline;text-anchor:start;white-space:normal;shape-padding:0;clip-rule:nonzero;display:inline;overflow:visible;visibility:visible;isolation:auto;mix-blend-mode:normal;color-interpolation:sRGB;color-interpolation-filters:linearRGB;solid-color:#000000;solid-opacity:1;vector-effect:none;fill:#d64946;fill-opacity:1;fill-rule:nonzero;stroke:none;stroke-width:0.42971489;stroke-linecap:round;stroke-linejoin:round;stroke-miterlimit:4;stroke-dasharray:none;stroke-dashoffset:0;stroke-opacity:1;color-rendering:auto;image-rendering:auto;shape-rendering:auto;text-rendering:auto;enable-background:accumulate"
           inkscape:connector-curvature="0" />
        <path
           id="path1202-7"
           d="m 6.2946741,269.78752 c -0.22142,0.004 -0.441049,0.0884 -0.6092653,0.25269 -0.2145654,0.20959 -0.297874,0.50595 -0.2490803,0.78445 -0.2868554,0.0838 -0.5261216,0.30468 -0.6108155,0.60823 -0.1282843,0.45977 0.141119,0.94399 0.6020305,1.08263 0.3083875,0.0928 0.6293067,0.007 0.8547283,-0.19327 0.2147226,0.19398 0.5188818,0.28269 0.8185547,0.20825 0.4581003,-0.11397 0.7495624,-0.5702 0.6588744,-1.02939 -0.062045,-0.31421 -0.2901217,-0.5551 -0.5767089,-0.65733 0.056746,-0.29405 -0.03339,-0.61043 -0.2692344,-0.82475 -0.1746951,-0.15874 -0.3976635,-0.23534 -0.6190835,-0.23151 z"
           style="color:#000000;font-style:normal;font-variant:normal;font-weight:normal;font-stretch:normal;font-size:medium;line-height:normal;font-family:sans-serif;font-variant-ligatures:normal;font-variant-position:normal;font-variant-caps:normal;font-variant-numeric:normal;font-variant-alternates:normal;font-feature-settings:normal;text-indent:0;text-align:start;text-decoration:none;text-decoration-line:none;text-decoration-style:solid;text-decoration-color:#000000;letter-spacing:normal;word-spacing:normal;text-transform:none;writing-mode:lr-tb;direction:ltr;text-orientation:mixed;dominant-baseline:auto;baseline-shift:baseline;text-anchor:start;white-space:normal;shape-padding:0;clip-rule:nonzero;display:inline;overflow:visible;visibility:visible;isolation:auto;mix-blend-mode:normal;color-interpolation:sRGB;color-interpolation-filters:linearRGB;solid-color:#000000;solid-opacity:1;vector-effect:none;fill:#f29312;fill-opacity:1;fill-rule:nonzero;stroke:none;stroke-width:0.42971247;stroke-linecap:round;stroke-linejoin:round;stroke-miterlimit:4;stroke-dasharray:none;stroke-dashoffset:0;stroke-opacity:1;color-rendering:auto;image-rendering:auto;shape-rendering:auto;text-rendering:auto;enable-background:accumulate"
           inkscape:connector-curvature="0" />
        <path
           d="m 2.9083174,266.76857 c -0.3578164,0 -0.660642,0.24122 -0.760677,0.56792 0.073849,-0.0228 0.1506336,-0.0388 0.2315104,-0.0388 h 6.7851147 c 0.4377477,0 0.7989177,0.3591 0.7989177,0.79685 0,0.0807 -0.01597,0.15726 -0.03876,0.231 0.3260508,-0.10074 0.5679238,-0.40315 0.5679238,-0.76016 0,-0.43775 -0.361169,-0.79685 -0.7989168,-0.79685 z"
           style="color:#000000;font-style:normal;font-variant:normal;font-weight:normal;font-stretch:normal;font-size:medium;line-height:normal;font-family:sans-serif;font-variant-ligatures:normal;font-variant-position:normal;font-variant-caps:normal;font-variant-numeric:normal;font-variant-alternates:normal;font-feature-settings:normal;text-indent:0;text-align:start;text-decoration:none;text-decoration-line:none;text-decoration-style:solid;text-decoration-color:#000000;letter-spacing:normal;word-spacing:normal;text-transform:none;writing-mode:lr-tb;direction:ltr;text-orientation:mixed;dominant-baseline:auto;baseline-shift:baseline;text-anchor:start;white-space:normal;shape-padding:0;clip-rule:nonzero;display:inline;overflow:visible;visibility:visible;isolation:auto;mix-blend-mode:normal;color-interpolation:sRGB;color-interpolation-filters:linearRGB;solid-color:#000000;solid-opacity:1;vector-effect:none;fill:#bd3f3c;fill-opacity:1;fill-rule:nonzero;stroke:none;stroke-width:0.42971489;stroke-linecap:round;stroke-linejoin:round;stroke-miterlimit:4;stroke-dasharray:none;stroke-dashoffset:0;stroke-opacity:1;color-rendering:auto;image-rendering:auto;shape-rendering:auto;text-rendering:auto;enable-background:accumulate"
           id="path1250-4"
           inkscape:connector-curvature="0" />
        <path
           d="m 6.2946733,269.78752 c -0.22142,0.004 -0.441048,0.0884 -0.6092647,0.25269 -0.09809,0.0958 -0.167178,0.21019 -0.210323,0.33228 0.09375,-0.0338 0.191541,-0.054 0.290422,-0.0558 0.2214197,-0.004 0.4443867,0.0728 0.6190824,0.23151 0.235844,0.21432 0.325984,0.53071 0.269234,0.82476 0.2865877,0.10223 0.5146687,0.34311 0.5767087,0.65732 0.03191,0.16158 0.01406,0.32213 -0.03927,0.46819 0.4041057,-0.14858 0.6528687,-0.56986 0.5684407,-0.99735 -0.06204,-0.31421 -0.290121,-0.5551 -0.5767087,-0.65733 0.05675,-0.29405 -0.03339,-0.61043 -0.269234,-0.82475 C 6.739065,269.8603 6.516097,269.7837 6.2946773,269.78753 Z m -1.3931961,1.46347 c -0.021757,0.0396 -0.040267,0.0814 -0.055811,0.12506 0.020479,-0.008 0.040464,-0.0161 0.061495,-0.0222 -0.00595,-0.034 -0.00366,-0.0685 -0.00568,-0.10284 z"
           style="color:#000000;font-style:normal;font-variant:normal;font-weight:normal;font-stretch:normal;font-size:medium;line-height:normal;font-family:sans-serif;font-variant-ligatures:normal;font-variant-position:normal;font-variant-caps:normal;font-variant-numeric:normal;font-variant-alternates:normal;font-feature-settings:normal;text-indent:0;text-align:start;text-decoration:none;text-decoration-line:none;text-decoration-style:solid;text-decoration-color:#000000;letter-spacing:normal;word-spacing:normal;text-transform:none;writing-mode:lr-tb;direction:ltr;text-orientation:mixed;dominant-baseline:auto;baseline-shift:baseline;text-anchor:start;white-space:normal;shape-padding:0;clip-rule:nonzero;display:inline;overflow:visible;visibility:visible;isolation:auto;mix-blend-mode:normal;color-interpolation:sRGB;color-interpolation-filters:linearRGB;solid-color:#000000;solid-opacity:1;vector-effect:none;fill:#d98412;fill-opacity:1;fill-rule:nonzero;stroke:none;stroke-width:0.42971247;stroke-linecap:round;stroke-linejoin:round;stroke-miterlimit:4;stroke-dasharray:none;stroke-dashoffset:0;stroke-opacity:1;color-rendering:auto;image-rendering:auto;shape-rendering:auto;text-rendering:auto;enable-background:accumulate"
           id="path1255-5"
           inkscape:connector-curvature="0" />
      </g>
      <path
         sodipodi:nodetypes="ccscscccccccccsccccccccccccsscccccccccccccscsccccsccssssssssscccccccccccccccccccsscccccccccccccccsccccccccccccsccccccccccc"
         id="path1580"
         style="color:#000000;font-style:normal;font-variant:normal;font-weight:normal;font-stretch:normal;font-size:medium;line-height:normal;font-family:sans-serif;font-variant-ligatures:normal;font-variant-position:normal;font-variant-caps:normal;font-variant-numeric:normal;font-variant-alternates:normal;font-feature-settings:normal;text-indent:0;text-align:start;text-decoration:none;text-decoration-line:none;text-decoration-style:solid;text-decoration-color:#000000;letter-spacing:normal;word-spacing:normal;text-transform:none;writing-mode:lr-tb;direction:ltr;text-orientation:mixed;dominant-baseline:auto;baseline-shift:baseline;text-anchor:start;white-space:normal;shape-padding:0;clip-rule:nonzero;display:inline;overflow:visible;visibility:visible;isolation:auto;mix-blend-mode:normal;color-interpolation:sRGB;color-interpolation-filters:linearRGB;solid-color:#000000;solid-opacity:1;vector-effect:none;fill:#000000;fill-opacity:1;fill-rule:nonzero;stroke:none;stroke-width:0.42971489;stroke-linecap:round;stroke-linejoin:round;stroke-miterlimit:4;stroke-dasharray:none;stroke-dashoffset:0;stroke-opacity:1;color-rendering:auto;image-rendering:auto;shape-rendering:auto;text-rendering:auto;enable-background:accumulate"
         d="m 6.2595662,262.55652 c -0.7630662,0.007 -1.4685708,0.35924 -1.9409667,0.93327 -0.8560684,0.0717 -1.6229886,0.5676 -2.0319174,1.32654 -0.3894862,0.72285 -0.3993267,1.58339 -0.044959,2.31562 -0.083574,0.12579 -0.1328084,0.27563 -0.1328084,0.43666 0,0.19929 0.077153,0.38075 0.1999878,0.52142 -0.00116,0.0197 -1.251e-4,0.0394 0.0031,0.0589 l 1.0583332,6.35517 c 0.020618,0.1286 0.1317552,0.22308 0.2619997,0.22272 h 2.6442824 2.6468674 c 0.1292656,-9e-4 0.2389542,-0.0951 0.2594152,-0.22272 l 1.0588506,-6.35517 c 1.82e-4,-0.001 3.7e-4,-0.002 5.29e-4,-0.003 0.15374,-0.14603 0.251147,-0.35089 0.251147,-0.57723 0,-0.0982 -0.02007,-0.19138 -0.05323,-0.27853 0.380395,-0.75476 0.367829,-1.65355 -0.04961,-2.39572 -0.4221381,-0.7506 -1.1946397,-1.22888 -2.048453,-1.28674 -0.4792779,-0.65943 -1.2508945,-1.05882 -2.0825606,-1.0511 z m 0.00465,0.5271 c 0.7691052,-0.008 1.4746804,0.4225 1.8215944,1.10897 0.063628,0.13129 0.221512,0.1863 0.3529499,0.12299 h 5.292e-4 c 0.061195,-0.0298 0.1085731,-0.082 0.1322916,-0.14573 0.5688232,0.11522 1.0675517,0.46746 1.3580568,0.98392 0.2966589,0.52745 0.3361419,1.15339 0.1245409,1.70843 -0.1088056,-0.0557 -0.2300255,-0.0904 -0.3596687,-0.0904 H 2.9078327 c -0.082165,0 -0.1602459,0.0164 -0.2351278,0.0398 -0.2372947,-0.55949 -0.2125491,-1.20043 0.080099,-1.74356 0.2588655,-0.48039 0.6978055,-0.8276 1.2092284,-0.97823 -0.027843,0.29476 0.3752906,0.40621 0.5028118,0.13901 0.3334197,-0.69312 1.0302636,-1.13715 1.7993733,-1.14515 z m 1.1280966,1.3503 c -0.3184745,0.0138 -0.6260269,0.17636 -0.8102865,0.46199 -0.1897546,0.29631 0.2534232,0.58198 0.4449345,0.2868 0.1431882,-0.22195 0.4291486,-0.28865 0.6557735,-0.15296 0.2266201,0.13568 0.3027256,0.41903 0.1746668,0.65009 -0.1357884,0.23342 0.1241943,0.4964 0.3591509,0.36329 0.043781,-0.0251 0.079462,-0.0622 0.1028362,-0.10698 0.2636041,-0.4757 0.1002337,-1.08076 -0.366386,-1.36012 -0.1749804,-0.10476 -0.3696044,-0.15036 -0.5606894,-0.14211 z m -2.7078451,0.33331 c -0.063433,0.003 -0.1271322,0.0115 -0.1906859,0.0258 -0.5084283,0.11473 -0.8746778,0.5651 -0.8831503,1.08624 -0.00494,0.14913 0.1143363,0.27285 0.2635499,0.27337 0.1461198,5.6e-4 0.2650325,-0.11743 0.2656168,-0.26355 0.00455,-0.27981 0.1977898,-0.51873 0.4707723,-0.58033 0.2729832,-0.0616 0.5495937,0.0697 0.6738608,0.3204 0.1421334,0.35393 0.6681338,0.0935 0.4728393,-0.2341 -0.2025142,-0.40859 -0.6287712,-0.65058 -1.0728013,-0.62783 z m -1.7766357,2.5337 h 6.7866659 c 0.1537385,0 0.2697509,0.11395 0.2697509,0.26768 0,0.15375 -0.1160063,0.26976 -0.2697509,0.26976 h -6.786665 c -0.1537449,0 -0.2697509,-0.11601 -0.2697509,-0.26976 0,-0.15373 0.1160119,-0.26768 0.26975,-0.26768 z m 4.4257263,6.8967 H 6.5422376 v -1.33791 c 0.00169,-0.14925 -0.1200037,-0.27047 -0.2692342,-0.26768 -0.1454081,0.003 -0.2615891,0.12226 -0.2599325,0.26768 v 1.33791 H 5.213835 c -0.05494,-0.54744 -0.1353934,-1.09607 -0.2063874,-1.64276 -0.016711,-0.13767 -0.1369171,-0.2392 -0.2754352,-0.23254 v 5.3e-4 c -0.155628,0.007 -0.2715722,0.14644 -0.2501142,0.30075 l 0.2067058,1.57407 H 3.855063 L 2.8840618,268.3696 h 1.043347 l 0.3472656,2.65823 c 0.022323,0.37813 0.5990718,0.30245 0.5234825,-0.0687 l -0.3369306,-2.5895 h 1.5518433 v 1.0604 c 0,0.35286 0.5291669,0.35286 0.5291666,0 v -1.0604 h 1.5518435 l -0.344682,2.64066 c -0.075591,0.37117 0.5011595,0.44635 0.5234823,0.0682 l 0.353467,-2.70888 h 1.0428316 l -0.9704834,5.82806 H 7.8667047 l 0.2227254,-1.69706 c 0.02536,-0.16943 -0.1146116,-0.31801 -0.2852539,-0.30282 -0.1257202,0.0109 -0.2263468,0.10868 -0.2402953,0.23409 -0.076427,0.58862 -0.154994,1.17699 -0.2303226,1.76575 z m -1.0378185,-4.40486 c -0.2221404,0.004 -0.4427932,0.0886 -0.6113322,0.25321 -0.2150086,0.21002 -0.2986127,0.50557 -0.2501141,0.7829 -0.2858643,0.0846 -0.5242676,0.30543 -0.6087483,0.60823 -0.1282779,0.45978 0.140612,0.94398 0.6015138,1.08262 0.3085508,0.0928 0.6299441,0.007 0.8557617,-0.1943 0.2151981,0.19404 0.5196578,0.28327 0.8190715,0.20877 0.4581072,-0.114 0.7500601,-0.56878 0.6593911,-1.02784 -0.062045,-0.31418 -0.2910612,-0.55616 -0.578259,-0.65888 0.057991,-0.29364 -0.03116,-0.60874 -0.2671673,-0.8232 -0.1744207,-0.15853 -0.3979767,-0.23549 -0.6201172,-0.23151 z m 0.0093,0.52296 c 0.08934,-0.002 0.1796659,0.0302 0.2516643,0.0956 0.1298522,0.11799 0.1526397,0.30214 0.064596,0.44648 -0.2111698,0.17094 -0.056578,0.50833 0.21239,0.46354 0.193044,-0.027 0.3677283,0.0968 0.4051432,0.28628 0.037416,0.18946 -0.077579,0.3689 -0.2666505,0.416 -0.1890792,0.0471 -0.3760991,-0.0574 -0.433565,-0.24185 -0.063576,-0.21507 -0.3521197,-0.25821 -0.4769736,-0.0713 -0.018108,0.0274 -0.030901,0.0579 -0.037724,0.0899 -0.067888,0.17735 -0.2570289,0.27072 -0.4423502,0.21497 -0.1904836,-0.0573 -0.2964228,-0.24767 -0.2433961,-0.4377 0.053015,-0.19002 0.2429783,-0.29985 0.4361493,-0.25218 0.2603388,0.0675 0.445244,-0.24642 0.2578653,-0.4377 -0.0066,-0.007 -0.014983,-0.0111 -0.02222,-0.0171 -0.094132,-0.14133 -0.078289,-0.3272 0.047542,-0.45011 0.069571,-0.0681 0.1581901,-0.10332 0.2475301,-0.1049 z"
         inkscape:connector-curvature="0" />
    </g>
  </g>
</svg>
